<?xml version="1.0" encoding="utf-8" ?>
<svg baseProfile="tiny" height="40px" version="1.2" width="40px" viewBox="0 0 384 384"
  xmlns="http://www.w3.org/2000/svg" xmlns:ev="http://www.w3.org/2001/xml-events"
  xmlns:xlink="http://www.w3.org/1999/xlink">
  <defs />
  <polyline fill="none"
    points="0.2494,174.2716 -0.077,169.8587 1.2415,165.0781 1.3556,160.88 1.892,157.1704 3.0404,153.2758 4.0937,148.1194 5.2173,144.0265 5.5165,139.709 7.269,136.5844 7.4369,133.2312 9.1655,128.8557 10.592,124.652 11.6084,121.8648 13.1039,117.7309 15.2018,115.5552 15.4643,111.2569 18.165,107.7847 20.086,104.6099 20.8169,100.783 22.9251,97.5503 25.086,94.5669 26.907,91.2941 28.6853,88.6557 31.2529,85.1617 33.3068,82.2289 35.2022,79.2693 37.4322,77.2593 38.8669,74.0543 40.9253,71.306 43.5165,67.8498 45.818,64.794 47.631,63.3907 50.365,59.8484 52.7058,58.0159 56.1057,54.6028 57.682,53.6762 61.5391,50.4317 63.5154,48.0105 65.8205,44.8494 69.1291,42.838 70.8656,41.3696 73.7733,39.0778 76.6435,37.2492 79.6923,33.3783 83.508,32.036 86.1977,29.6294 89.2277,27.5709 92.1152,26.4703 95.3309,24.5305 97.9354,23.3489 101.8097,20.8658 104.8465,19.154 108.3246,17.6687 111.8293,15.7528 114.8687,15.1218 119.3593,12.6279 121.4029,11.5752 126.6984,9.8962 130.0494,8.6106 134.2416,8.11 136.751,7.2696 140.7758,4.9071 145.0972,3.8856 148.7521,2.9233 153.1505,3.2639 158.5457,1.9606 161.7233,0.3123 166.2462,-0.3172 170.8757,0.1428"
    stroke="black" stroke-width="8" />
  <polyline fill="none"
    points="208.7186,-0.7704 213.4485,-0.0057 217.5201,1.3411 221.3254,0.9848 225.4912,1.29 230.2194,2.8143 234.8435,3.5472 238.9411,5.182 242.42,5.8964 245.5967,7.1703 250.1616,8.2333 254.1821,8.7253 257.8408,10.8473 261.3857,11.8056 264.8424,12.7085 267.6823,15.4071 271.7019,16.5345 274.6845,17.7088 279.1674,19.8774 281.9444,20.9412 284.851,22.8551 287.9679,25.0617 292.8976,26.7224 295.4,29.2615 298.1334,30.8064 301.225,33.0774 303.9173,34.2706 305.9421,37.087 309.4698,38.6513 312.3039,40.8735 315.5868,43.8507 317.521,46.0593 320.1282,47.6027 322.3137,50.4173 324.9376,52.6056 328.3193,55.9197 329.5739,58.1119 333.5799,61.2797 334.8408,63.0356 337.9933,66.0735 340.243,68.7956 342.3619,71.0362 344.2884,73.6081 346.1895,77.079 348.866,80.1548 350.5528,83.0221 352.8405,86.1798 355.4362,88.7671 357.0833,92.2982 357.6105,95.3224 360.2634,98.2617 362.1313,101.4396 364.1377,104.9457 364.6617,108.2373 366.9176,112.0418 368.0541,115.4774 370.1798,119.2937 371.7175,121.9153 373.219,125.9656 374.3191,129.7116 374.7229,133.664 375.9677,137.7628 377.9499,140.2338 378.8145,145.201 379.7825,148.4022 379.7223,152.5004 381.0633,158.5299 382.0877,162.2816 383.1085,165.7944 383.0868,171.5884"
    stroke="black" stroke-width="8" />
  <polyline fill="none"
    points="383.6211,208.6555 383.3814,212.9291 381.9548,217.7906 382.3625,221.7262 381.1994,225.6111 379.8262,230.4522 378.4996,235.3151 378.1272,238.9098 377.6418,243.0175 375.6313,245.8044 375.1851,250.0444 374.3563,254.1762 371.7165,258.038 371.2212,260.7594 369.9642,264.822 368.0384,267.802 367.3849,272.2836 364.8968,274.5483 363.0942,279.3799 362.3298,282.312 359.9231,284.5779 357.9359,288.0015 356.7511,292.1582 353.5843,295.0889 352.3457,298.0771 350.6114,300.7802 348.1623,304.0678 345.2725,305.8148 344.1389,308.9624 342.3854,311.8172 339.2219,314.9992 336.5894,318.1465 334.4699,319.8565 332.0368,322.7701 330.2941,324.8124 327.2279,327.6046 324.9711,330.3351 322.5378,333.4842 319.5736,334.9155 316.7937,338.2364 313.7193,340.0948 312.0487,342.1833 309.0225,344.5668 305.6465,346.4163 302.959,349.0546 300.3491,350.8915 297.0453,353.0784 293.4815,355.2432 290.5204,357.2042 288.3942,358.0387 284.8656,359.9467 280.8007,361.8123 278.1987,364.2029 275.2741,364.7175 271.1109,367.1212 267.5247,369.014 264.4572,369.9569 260.5393,371.1507 256.611,372.9533 252.391,374.3669 248.7078,374.9269 244.7971,373.6954 241.7526,372.004 240.2667,369.049 238.8169,363.8133 239.0682,358.1661 238.6287,354.256 239.2815,348.9416 238.3909,343.5583 239.095,339.3854 239.005,334.2368 238.5711,328.5807 239.1331,323.6382 238.5666,319.0426 239.5113,314.3658 238.4717,309.1552 239.4882,304.2603 237.7502,300.001 236.657,295.7416 236.2654,292.1202 234.8407,288.8683 232.7057,285.4416 230.6265,281.5408 228.8646,278.8085 226.7512,276.2466 231.9259,274.6031 236.104,273.9164 239.7584,274.4186 244.3123,272.7263 249.1751,272.237 253.2545,271.3775 255.4877,270.3587 259.9864,267.7904 263.9329,267.6834 266.9462,265.7532 271.1971,264.0404 273.914,262.4915 277.3005,261.1406 280.1609,259.3038 282.6914,257.3436 285.6671,253.9694 289.0064,251.8755 291.1484,250.3055 294.3738,246.1982 296.3055,243.7844 298.2075,241.7027 299.8927,238.7578 301.8381,235.0212 303.8707,231.8686 304.8427,228.8687 306.837,224.7242 308.4896,222.1186 308.9127,218.099 309.8509,214.1798 311.1071,210.044 312.3446,206.4945 311.8674,201.1787 313.0079,196.7002 313.1265,192.3443 313.5543,186.8218 314.1554,183.2207 314.214,177.3785 312.7094,173.9671 313.2057,168.8979 312.2148,165.3307 311.2211,160.6193 309.625,156.9816 309.1467,154.014 307.1979,149.5765 306.089,147.0292 303.7341,142.2182 302.2977,139.5146 299.4212,136.915 298.2502,135.6477 296.0903,131.6513 294.8926,128.3233 296.0301,125.1048 296.9173,120.2486 297.4666,116.4695 297.9384,111.829 298.3449,107.2412 298.0581,101.681 296.7971,98.0989 296.2013,94.4146 296.5865,89.7936 293.8753,85.7609 292.8832,81.6869 291.0551,78.6248 286.5641,79.1384 282.6352,79.7343 279.0034,79.7208 275.4629,82.371 271.2928,82.3307 266.9101,84.3899 264.2425,86.0304 260.9205,87.2171 257.0354,89.1677 253.541,91.2497 251.536,92.221 247.8309,94.3806 245.1943,96.3023 242.0102,98.6096 237.197,98.5515 233.0259,97.8843 228.9594,97.7309 224.9886,96.03 221.1788,95.452 216.1309,94.0075 211.7298,94.2682 206.7805,94.7338 203.4937,93.2908 198.0875,92.7338 193.0594,92.8077 188.0374,92.9235 183.646,93.0006 177.7043,92.7356 173.7875,93.5827 168.5424,93.817 164.5334,94.8468 160.879,95.8243 156.0354,95.4895 151.9059,97.016 147.6165,97.3165 143.6015,98.8462 141.1974,97.3873 136.6733,95.3092 134.0792,93.0989 131.6019,90.5136 127.5394,90.0256 124.526,88.405 120.8555,86.177 118.3605,85.7026 114.5886,83.4585 110.4423,81.5381 107.0371,81.0008 102.8205,80.0681 99.269,78.5979 93.7321,78.6627 91.0113,80.473 89.9005,84.3099 89.0114,88.1027 87.5145,92.0676 87.1942,96.2441 86.4507,100.968 85.89,105.3488 86.4639,109.8372 86.0011,114.1959 86.7613,118.8395 87.866,122.4941 88.8944,127.193 89.8417,130.8207 87.1884,132.9525 85.7293,135.5382 82.9235,138.6866 80.8358,141.4992 78.7129,144.6644 76.6889,149.1416 75.3598,151.646 73.77,156.1274 72.6935,159.0671 71.8654,162.881 71.1263,168.1765 71.149,171.7054 69.994,177.1123 70.0564,180.8239 70.008,186.1032 71.1753,189.7554 70.9527,194.7851 71.2024,199.8824 71.7502,204.0676 73.1112,208.0833 72.8747,212.4851 74.0298,215.9159 76.2655,219.7554 76.5653,223.7915 77.9585,227.2984 80.1409,231.1389 81.4002,233.7072 83.1222,236.8554 85.4966,239.7629 87.1101,243.1476 90.4078,246.3326 91.8442,249.1761 94.0087,251.4538 97.2602,254.0123 99.7636,256.2836 102.7344,257.8609 105.7299,260.1707 109.2913,261.8712 111.6991,262.9171 114.8135,264.9088 119.2772,267.1829 121.8212,267.6946 126.0103,269.2349 129.7259,269.9609 133.8478,271.7224 137.9865,272.3106 142.2305,273.0827 145.5237,274.5178 150.3975,274.9653 154.632,274.4379 156.3282,278.3138 153.3515,281.305 151.064,283.9918 150.4591,287.1955 147.7864,289.8594 147.0638,294.3739 145.7204,298.2041 145.2406,301.6342 140.8136,304.1191 137.8754,305.0204 134.2394,306.0177 129.0433,307.4815 125.0087,308.1002 119.5869,307.7029 116.2202,307.0461 111.9346,305.374 107.6182,304.9036 104.4509,303.1948 102.1886,301.2497 98.9607,299.4386 95.999,296.3452 93.7456,293.945 91.1036,291.1868 89.1382,287.6343 87.5673,285.0734 85.0251,282.4792 83.4887,278.812 80.8114,276.8524 78.2354,274.7995 74.7496,271.7951 71.7833,269.7264 69.1268,269.1421 65.3255,268.3079 61.0247,266.891 55.5521,266.494 52.3535,268.3411 50.6486,270.6377 52.5685,273.8905 56.3568,275.7434 58.7645,277.749 61.8114,279.9668 63.9981,282.0047 67.0079,284.9377 68.4972,287.9813 71.1784,289.9687 73.0348,293.7749 75.5751,297.4765 76.8004,299.7934 78.6118,302.9972 80.0777,307.0493 81.9567,310.0963 82.807,313.5163 84.4354,315.1968 88.2384,319.2549 89.5646,321.2293 92.4985,323.0549 95.9514,325.2791 100.1899,327.4478 103.3778,328.2656 107.1016,328.9978 111.7069,330.2134 115.7164,329.7381 120.7677,330.267 126.1878,329.9746 130.6546,330.572 134.7486,328.4978 139.8503,329.1197 143.9749,329.1151 145.0957,332.1578 145.2433,338.0 144.7524,342.8069 145.3053,348.1774 144.645,352.9615 144.9486,358.0575 145.2594,362.6247 143.5094,367.452 142.4039,370.8606 139.5917,372.4651 136.1751,375.0665 130.5367,374.0047 127.8538,372.3539 124.0598,372.2137 119.9954,369.6266 116.8057,369.2186 112.8661,366.9492 109.5219,366.2193 105.7474,363.9523 102.9351,362.8118 100.5411,361.0096 97.0024,358.7935 93.1613,356.8534 89.879,355.1216 87.2888,353.1099 83.8091,351.1713 81.3198,348.9308 78.2451,346.8137 75.3967,344.7354 73.5677,342.6473 70.1198,340.6808 67.3063,338.7283 63.9133,335.468 62.3713,334.354 58.7387,330.621 56.6305,328.8234 53.6355,325.5876 52.3719,324.0926 48.6455,321.075 46.8146,319.0862 43.8752,315.8387 42.0042,313.2261 39.7386,309.6515 38.3695,307.9613 35.688,305.0342 33.8406,302.1436 31.9054,299.0408 29.7131,295.7731 28.2482,292.9667 25.7844,289.5898 24.0564,286.2154 21.7477,283.0308 20.1734,280.3279 18.4271,277.0009 17.608,272.7379 14.4884,269.9623 14.0179,265.9238 11.5198,263.3608 10.9867,259.0626 10.1969,256.1106 7.9257,251.542 6.9262,248.7496 5.573,243.935 4.7424,239.6854 3.7371,236.268 3.2868,232.1006 1.8666,228.2495 0.604,224.1152 1.4298,218.9504 -0.5684,215.3449 -0.0812,210.1282"
    stroke="black" stroke-width="8" />
</svg>