<?xml version="1.0" standalone="no"?>
<!DOCTYPE svg PUBLIC "-//W3C//DTD SVG 20010904//EN"
 "http://www.w3.org/TR/2001/REC-SVG-20010904/DTD/svg10.dtd">
<svg version="1.0" xmlns="http://www.w3.org/2000/svg"
 width="300.000000pt" height="300.000000pt" viewBox="0 0 300.000000 300.000000"
 preserveAspectRatio="xMidYMid meet">
<metadata>
Created by potrace 1.10, written by Peter Selinger 2001-2011
</metadata>
<g transform="translate(0.000000,300.000000) scale(0.100000,-0.100000)"
fill="#000000" stroke="none">
<path d="M1501 2836 c-23 -27 7 -61 87 -100 111 -54 143 -71 150 -82 12 -16
79 -63 84 -58 3 2 11 -2 17 -10 10 -12 17 -13 31 -3 15 9 23 8 39 -7 12 -11
21 -28 21 -39 0 -27 8 -18 14 16 2 14 0 30 -6 33 -7 5 -8 2 -3 -6 5 -8 3 -11
-4 -9 -7 3 -12 9 -11 14 2 13 -31 24 -57 18 -15 -3 -30 3 -48 21 -15 15 -31
23 -37 20 -6 -4 -8 -3 -5 3 4 6 -1 17 -11 24 -15 13 -16 12 -3 -3 7 -10 9 -18
3 -18 -11 0 -30 21 -31 35 -1 6 -4 10 -8 10 -5 1 -31 13 -60 28 -29 15 -60 28
-70 30 -42 7 -83 38 -83 61 0 14 6 27 13 29 7 4 8 6 1 6 -6 1 -17 -5 -23 -13z"/>
<path d="M1307 2796 c-31 -8 -36 -13 -31 -30 4 -12 7 -21 8 -22 0 -1 10 -6 21
-12 18 -10 18 -11 2 -12 -10 0 -15 -4 -12 -10 3 -5 22 -10 41 -10 45 0 45 21
-1 43 -19 9 -35 22 -35 28 0 10 18 10 98 -5 12 -2 22 0 22 6 0 6 -6 8 -13 5
-8 -3 -19 -2 -26 2 -7 5 2 8 21 9 18 0 36 -4 39 -10 5 -7 12 -7 24 0 17 9 16
10 -6 17 -36 12 -109 13 -152 1z"/>
<path d="M1150 2755 c0 -8 14 -27 31 -42 18 -16 40 -36 50 -47 10 -10 23 -15
31 -11 7 3 5 0 -4 -8 -16 -13 -15 -15 17 -24 l34 -11 -21 29 c-12 15 -25 26
-30 23 -4 -3 -13 7 -18 21 -5 14 -14 24 -19 21 -4 -3 -17 4 -27 16 -11 12 -13
18 -6 14 7 -4 12 -1 12 8 0 10 -6 13 -15 10 -8 -4 -15 -1 -15 5 0 6 -4 11 -10
11 -5 0 -10 -7 -10 -15z"/>
<path d="M1445 2759 c-20 -8 -20 -8 0 -9 11 -1 25 -3 30 -5 6 -1 18 -3 28 -3
9 -1 23 -13 29 -27 8 -19 14 -22 20 -13 12 20 10 24 -19 43 -32 21 -60 26 -88
14z"/>
<path d="M970 2736 c0 -7 11 -21 25 -30 14 -9 25 -13 25 -8 0 5 -11 18 -25 30
-17 15 -25 18 -25 8z"/>
<path d="M937 2714 c-3 -18 1 -28 15 -35 31 -17 39 3 13 33 l-23 27 -5 -25z"/>
<path d="M1406 2715 c4 -10 20 -15 48 -15 l41 1 -34 14 c-43 19 -62 19 -55 0z"/>
<path d="M995 2640 c11 -5 16 -9 10 -10 -35 -5 -49 -10 -59 -21 -8 -9 -6 -9 9
-1 11 5 23 10 28 10 4 0 22 4 40 8 32 7 32 8 7 15 -35 10 -60 10 -35 -1z"/>
<path d="M885 2629 c-35 -4 -41 -7 -20 -8 17 -1 38 -4 47 -6 10 -2 21 1 24 7
9 13 5 14 -51 7z"/>
<path d="M1785 2560 c4 -14 21 -40 37 -58 16 -19 31 -47 35 -63 3 -16 10 -32
14 -35 5 -3 7 -17 4 -32 -3 -15 -2 -20 2 -12 5 9 12 -7 19 -45 7 -37 12 -49
13 -30 1 75 -57 225 -107 275 l-25 25 8 -25z"/>
<path d="M1964 2557 c1 -7 17 -35 35 -63 38 -57 34 -22 -5 39 -26 39 -33 45
-30 24z"/>
<path d="M1025 2515 c-15 -19 -25 -38 -21 -42 3 -3 6 -1 6 6 0 7 5 9 10 6 6
-4 10 -3 9 2 -1 4 -1 15 0 23 1 12 3 13 10 1 7 -11 10 -9 16 8 11 36 -1 35
-30 -4z"/>
<path d="M838 2517 c-14 -12 -32 -33 -38 -46 -9 -17 1 -11 29 18 46 47 51 64
9 28z"/>
<path d="M917 2493 c-13 -21 -27 -44 -31 -51 -13 -21 -17 -100 -7 -107 6 -3 9
7 6 26 -3 28 34 115 67 157 7 8 7 12 -1 12 -6 0 -21 -17 -34 -37z"/>
<path d="M1977 2434 c24 -42 43 -64 43 -47 0 4 -9 19 -20 33 -11 14 -20 30
-20 36 0 7 -6 14 -14 17 -9 4 -5 -10 11 -39z"/>
<path d="M1257 2438 c-40 -54 -42 -62 -13 -43 15 10 24 20 21 23 -3 3 2 14 12
24 9 10 14 21 11 24 -3 3 -17 -10 -31 -28z"/>
<path d="M1940 2443 c9 -29 51 -149 77 -218 8 -22 19 -60 23 -85 l8 -45 1 38
c1 50 -15 120 -44 183 -13 28 -28 70 -34 92 -6 22 -18 45 -25 52 -13 10 -13 7
-6 -17z"/>
<path d="M838 2440 c-9 -6 -19 -27 -23 -48 -3 -20 -11 -44 -16 -52 -9 -12 -10
-10 -6 8 8 34 -7 26 -19 -11 -7 -25 -7 -34 2 -34 7 0 10 7 6 15 -3 10 -1 13 6
8 8 -4 18 7 28 31 9 21 22 50 30 66 7 15 12 27 11 27 -1 0 -9 -5 -19 -10z"/>
<path d="M1393 2438 c-6 -10 65 -8 97 2 18 6 9 8 -33 7 -33 -1 -61 -5 -64 -9z"/>
<path d="M1320 2388 c-25 -30 -32 -42 -16 -28 28 25 71 80 63 80 -2 0 -23 -24
-47 -52z"/>
<path d="M1046 2390 c-20 -49 -22 -86 -4 -55 7 11 13 25 14 30 1 6 5 22 9 38
11 40 0 33 -19 -13z"/>
<path d="M1103 2405 c-18 -48 -23 -65 -18 -65 10 0 36 62 33 78 -2 12 -7 8
-15 -13z"/>
<path d="M1692 2394 c-7 -14 -8 -23 -2 -19 5 3 10 -3 10 -14 0 -12 -5 -21 -10
-21 -10 0 -4 -42 10 -69 5 -10 9 -8 13 8 3 14 1 19 -6 15 -9 -5 -9 -4 -1 5 10
10 9 109 0 119 -2 1 -8 -9 -14 -24z"/>
<path d="M1465 2395 l-30 -14 34 5 c22 3 37 0 43 -8 6 -9 10 -10 16 -2 4 7 16
14 27 17 13 3 9 5 -10 4 -17 0 -35 2 -40 5 -6 3 -23 0 -40 -7z"/>
<path d="M1790 2381 c0 -7 -4 -10 -8 -7 -9 5 -35 -104 -27 -112 3 -3 8 9 11
26 4 18 10 32 14 32 9 0 22 61 15 68 -3 3 -5 0 -5 -7z"/>
<path d="M1627 2333 c0 -27 4 -59 7 -73 15 -59 6 -144 -15 -163 -9 -6 -23 -24
-32 -39 -10 -16 -26 -28 -38 -28 -13 0 -18 -4 -13 -12 5 -8 2 -9 -12 -3 -25
11 -109 8 -133 -4 -10 -6 -33 -12 -50 -13 -18 -1 -31 -8 -31 -16 0 -7 4 -11 9
-7 5 3 12 1 15 -3 3 -5 33 -3 68 4 88 19 155 17 221 -5 32 -10 57 -15 57 -10
0 11 -54 39 -74 39 -29 0 -26 19 8 64 24 32 37 61 41 93 3 27 8 61 10 76 3 17
1 26 -5 22 -6 -3 -10 5 -10 18 0 13 -3 27 -7 31 -4 4 -6 23 -4 42 1 18 -1 34
-6 34 -4 0 -7 -21 -6 -47z"/>
<path d="M1320 2329 c-62 -33 -64 -34 -54 -16 4 6 -6 -1 -23 -18 -35 -35 -34
-45 3 -21 14 10 28 15 31 12 4 -3 13 3 21 15 8 11 20 18 28 15 8 -3 14 -1 14
4 0 6 4 10 10 10 5 0 7 -8 3 -17 -3 -10 -3 -15 1 -11 4 3 8 12 10 20 1 7 5 19
9 26 10 15 14 16 -53 -19z"/>
<path d="M1400 2293 c-8 -3 -23 -13 -33 -22 -11 -9 -31 -21 -45 -28 -24 -10
-25 -11 -6 -12 12 -1 33 8 46 19 14 10 27 17 30 15 2 -2 9 5 16 15 7 11 11 20
10 19 -2 0 -10 -3 -18 -6z"/>
<path d="M740 2273 c0 -9 -3 -13 -6 -10 -9 8 -64 -62 -64 -81 0 -8 13 2 30 23
17 21 30 32 30 24 1 -8 7 0 15 16 7 17 14 24 14 16 1 -8 3 -12 6 -9 8 7 -5 38
-16 38 -5 0 -9 -7 -9 -17z"/>
<path d="M1873 2220 c-1 -28 3 -53 8 -56 5 -3 9 -28 9 -56 0 -28 3 -48 7 -45
10 11 6 109 -5 116 -5 3 -9 23 -7 44 1 21 -1 40 -5 42 -4 2 -7 -18 -7 -45z"/>
<path d="M1730 2217 c0 -32 4 -46 11 -42 6 4 8 13 5 20 -3 8 -2 15 3 17 4 2 1
14 -6 28 -12 24 -13 22 -13 -23z"/>
<path d="M2082 2242 c4 -12 2 -25 -3 -28 -15 -9 -10 -34 6 -34 18 0 21 65 3
76 -8 5 -9 0 -6 -14z"/>
<path d="M1703 2201 c2 -25 9 -47 15 -49 8 -2 10 7 6 30 -11 55 -25 68 -21 19z"/>
<path d="M1782 2200 c-5 -22 -6 -40 -2 -40 5 0 11 10 13 23 3 12 3 -6 1 -40
-3 -34 0 -64 5 -67 5 -3 12 -26 16 -51 3 -25 13 -62 22 -83 9 -22 16 -72 17
-127 2 -49 4 -108 5 -130 l2 -40 14 50 c13 47 13 69 1 122 -3 13 -1 25 5 28 5
4 9 21 9 38 0 25 -3 29 -10 17 -7 -11 -9 -3 -5 27 3 26 0 45 -7 49 -7 5 -8 2
-3 -7 6 -10 5 -11 -4 -3 -8 8 -9 18 -1 38 10 28 -7 119 -21 110 -4 -2 -8 4 -8
13 1 16 -28 103 -35 111 -2 1 -8 -15 -14 -38z"/>
<path d="M1510 2200 c-12 -16 -26 -28 -31 -25 -5 4 -9 1 -9 -5 0 -6 -5 -8 -11
-5 -6 4 -20 -2 -32 -13 -12 -11 -35 -24 -52 -30 -16 -6 -24 -11 -17 -11 9 -1
8 -8 -5 -27 l-17 -26 55 27 c71 36 128 82 140 113 14 36 4 38 -21 2z"/>
<path d="M721 2201 c-10 -6 -11 -21 -6 -60 6 -45 24 -79 62 -119 18 -18 26
-58 19 -85 -8 -33 5 -166 15 -142 4 11 8 36 8 55 1 20 8 60 17 90 25 88 32
130 23 130 -5 0 -9 -11 -9 -25 0 -28 -19 -35 -21 -7 -1 9 -5 4 -9 -13 -6 -24
-8 -26 -9 -7 0 12 -5 22 -11 22 -5 0 -10 7 -10 15 0 8 -6 15 -14 15 -14 0 -26
29 -26 68 0 13 -4 21 -8 18 -5 -3 -6 8 -4 25 5 32 4 33 -17 20z"/>
<path d="M916 2141 c-49 -95 -45 -104 5 -12 22 40 38 76 35 78 -3 3 -21 -27
-40 -66z"/>
<path d="M1585 2190 c-8 -25 -66 -80 -102 -96 l-28 -12 33 -1 c26 -1 42 8 77
44 25 24 45 54 45 65 0 26 -17 26 -25 0z"/>
<path d="M1325 2189 c5 -7 -33 -22 -48 -20 -5 1 -6 -3 -3 -8 4 -5 0 -11 -6
-14 -9 -3 -7 -7 5 -12 10 -4 27 -1 41 8 27 18 40 54 20 54 -7 0 -11 -4 -9 -8z"/>
<path d="M2070 2108 c0 -15 -5 -30 -11 -34 -6 -3 -9 -21 -7 -39 2 -19 0 -31
-4 -29 -15 9 -8 -33 7 -46 12 -10 16 -10 19 1 9 28 13 148 5 161 -6 9 -9 4 -9
-14z"/>
<path d="M1246 2113 c-19 -5 -31 -13 -67 -45 -10 -10 -26 -18 -36 -18 -9 0
-13 -3 -10 -7 4 -3 -1 -11 -10 -18 -10 -7 -12 -14 -6 -18 6 -4 28 6 49 22 45
33 111 91 104 89 -3 0 -14 -3 -24 -5z"/>
<path d="M2017 2083 c-4 -3 -7 -20 -7 -37 l1 -31 14 34 c8 18 15 35 15 37 0 6
-16 5 -23 -3z"/>
<path d="M931 2029 c-45 -9 -70 -24 -59 -35 4 -3 16 0 28 6 26 14 86 9 153
-13 26 -9 47 -12 47 -7 0 6 -9 10 -20 10 -12 0 -33 11 -48 25 -29 27 -33 27
-101 14z"/>
<path d="M1941 1994 c-1 -24 -7 -47 -16 -54 -19 -16 -19 -39 0 -64 15 -20 15
-20 15 0 0 11 -6 26 -12 33 -11 11 -10 13 5 8 11 -4 16 -3 12 3 -3 5 -2 24 3
42 5 18 5 42 1 53 -6 15 -8 9 -8 -21z"/>
<path d="M2020 1977 c0 -4 7 -21 15 -37 11 -21 20 -27 31 -23 15 6 15 7 0 19
-10 7 -24 21 -31 31 -8 10 -15 14 -15 10z"/>
<path d="M955 1931 c-17 -10 -38 -30 -47 -44 -16 -24 -16 -25 2 -20 11 3 20
12 20 20 0 10 6 13 16 9 8 -3 13 -2 10 3 -8 12 21 34 34 26 5 -3 10 -13 10
-20 0 -8 9 -19 21 -25 25 -14 69 11 69 39 0 36 -85 43 -135 12z m110 -17 c0
-24 -42 -32 -51 -9 -9 23 6 33 17 12 6 -9 15 -15 20 -11 6 3 5 12 -3 22 -11
13 -11 14 2 10 8 -2 15 -13 15 -24z"/>
<path d="M1345 1936 c-36 -12 -38 -14 -20 -23 16 -9 26 -6 50 13 33 26 29 28
-30 10z"/>
<path d="M1981 1914 c-12 -19 -21 -47 -21 -61 0 -14 -8 -31 -17 -38 -15 -11
-15 -15 6 -50 12 -21 20 -47 18 -57 -6 -22 6 -23 24 -2 11 14 10 21 -4 45 -20
35 -13 141 10 165 8 8 11 14 6 14 -4 0 -1 5 7 10 8 5 10 10 3 10 -6 0 -20 -16
-32 -36z"/>
<path d="M1392 1919 c-43 -20 -52 -44 -16 -44 12 0 18 6 16 16 -1 9 9 21 24
28 22 9 31 9 50 -4 29 -19 38 -19 30 0 -3 8 -1 15 4 15 13 0 13 -37 -1 -45 -5
-4 -19 1 -31 12 -20 18 -20 18 -17 -2 6 -28 52 -32 76 -6 20 22 68 19 60 -3
-3 -8 8 -13 29 -14 19 -2 34 -1 34 2 0 2 -29 18 -65 35 -77 37 -131 39 -193
10z"/>
<path d="M1112 1913 c1 -5 -4 -21 -10 -36 -15 -35 -15 -40 -2 -32 6 3 10 -3
10 -14 0 -12 -5 -21 -12 -21 -6 0 -8 -3 -5 -7 13 -12 45 28 41 50 -5 22 -4 22
5 0 6 -13 13 -23 16 -23 4 0 4 3 2 8 -3 4 -1 16 3 27 5 14 1 25 -16 37 -24 19
-35 23 -32 11z"/>
<path d="M2025 1885 c4 -16 10 -52 14 -80 l8 -50 2 61 c1 41 -4 66 -15 80 -15
18 -15 18 -9 -11z"/>
<path d="M1380 1847 c8 -8 35 -18 60 -21 25 -3 39 -3 32 0 -6 3 -10 9 -7 14 3
4 -5 7 -18 7 -12 -1 -35 2 -52 7 -26 6 -28 6 -15 -7z"/>
<path d="M1142 1800 c-7 -11 -12 -26 -12 -34 0 -8 -11 -28 -25 -44 -13 -16
-22 -32 -19 -35 10 -10 45 6 40 18 -2 7 -2 16 2 20 4 4 7 10 8 13 2 14 18 47
25 52 4 3 5 11 1 17 -6 9 -11 6 -20 -7z"/>
<path d="M2070 1729 c-16 -63 -40 -116 -66 -144 -24 -26 -20 -33 7 -12 31 23
91 178 75 194 -3 3 -10 -15 -16 -38z"/>
<path d="M1400 1682 c1 -4 14 -23 30 -42 17 -19 30 -40 30 -47 0 -6 16 -24 35
-38 39 -30 49 -54 47 -105 -3 -44 13 -22 23 32 6 34 4 41 -28 72 -20 19 -51
56 -69 82 -18 26 -41 48 -51 50 -9 1 -17 -1 -17 -4z"/>
<path d="M1257 1628 c-15 -11 -12 -13 25 -13 24 0 45 5 48 10 8 15 -53 18 -73
3z"/>
<path d="M1110 1615 c7 -8 18 -15 25 -15 7 0 18 -7 25 -15 10 -12 10 -15 -1
-17 -8 0 9 -4 36 -7 59 -7 62 -6 45 14 -7 8 -25 15 -40 15 -15 0 -39 9 -53 20
-31 24 -56 28 -37 5z"/>
<path d="M825 1518 c3 -46 10 -85 15 -86 6 -2 8 -7 5 -12 -6 -9 30 -120 42
-129 4 -3 9 -13 11 -21 5 -21 22 -40 36 -40 6 0 3 5 -6 11 -10 5 -18 18 -18
29 0 28 -11 51 -22 44 -6 -4 -8 2 -6 12 3 11 -1 30 -7 44 -7 14 -16 43 -20 65
-5 22 -9 43 -10 48 -2 4 -3 10 -5 15 -1 4 -2 26 -2 50 0 23 -4 45 -9 48 -6 3
-7 -29 -4 -78z"/>
<path d="M977 1557 c-9 -12 -17 -28 -17 -36 0 -10 6 -7 17 9 9 14 21 28 26 31
5 4 5 9 0 12 -5 3 -16 -4 -26 -16z"/>
<path d="M1883 1518 c-6 -7 -13 -42 -17 -78 l-6 -65 18 30 c10 17 27 48 37 70
10 22 20 43 22 48 7 12 -44 8 -54 -5z"/>
<path d="M1277 1514 c-3 -3 -29 -7 -59 -9 -48 -3 -128 -28 -128 -40 0 -7 54 0
68 9 6 4 19 3 28 -2 11 -6 27 -5 46 2 23 9 31 8 38 -4 7 -10 10 -11 10 -2 0 6
9 12 20 12 11 0 20 -5 20 -10 0 -6 8 -5 20 2 17 11 22 10 29 -1 5 -7 14 -10
21 -6 6 4 17 -1 24 -10 10 -14 17 -15 33 -7 11 6 25 17 31 24 9 11 1 14 -44
15 -30 1 -62 7 -70 13 -7 7 -23 10 -34 7 -11 -3 -23 -1 -26 4 -6 10 -18 12
-27 3z"/>
<path d="M1020 1460 c0 -13 60 -43 68 -34 4 4 1 9 -5 11 -7 3 -13 11 -13 19 0
8 -10 14 -25 14 -14 0 -25 -4 -25 -10z"/>
<path d="M1320 1431 c0 -4 -50 -7 -111 -6 -72 1 -105 -2 -94 -8 9 -5 32 -9 50
-10 19 -1 32 -4 30 -7 -2 -4 2 -7 9 -7 8 0 12 6 9 14 -7 18 15 17 33 -2 12
-11 20 -12 35 -5 10 6 19 8 19 5 0 -3 9 -1 20 5 21 11 27 30 10 30 -5 0 -10
-4 -10 -9z"/>
<path d="M1050 1391 c0 -12 49 -51 63 -51 6 0 -2 14 -18 30 -29 30 -45 38 -45
21z"/>
<path d="M1160 1299 c0 -6 6 -9 14 -6 7 3 19 0 26 -6 10 -9 11 -9 5 2 -5 10
-3 12 11 7 11 -3 26 -1 34 4 11 7 0 10 -37 10 -32 0 -53 -4 -53 -11z"/>
<path d="M945 1195 c21 -36 65 -85 77 -85 5 0 -5 15 -21 33 -16 17 -39 43 -51
57 l-22 25 17 -30z"/>
<path d="M1585 1097 c-25 -14 -61 -47 -51 -47 20 0 83 46 75 55 -2 2 -13 -1
-24 -8z"/>
<path d="M1880 1075 c0 -3 9 -23 20 -45 l20 -39 -48 -42 c-44 -39 -44 -40 -7
-14 74 52 106 87 93 102 -19 23 -78 51 -78 38z"/>
<path d="M2005 1010 c8 -16 15 -36 15 -44 0 -37 27 -68 88 -103 36 -20 115
-68 176 -108 61 -39 143 -89 181 -110 114 -62 199 -130 314 -251 92 -98 115
-129 156 -212 26 -53 51 -110 55 -127 7 -25 8 -21 9 24 1 34 -4 60 -13 70 -8
9 -28 44 -46 79 -30 59 -53 91 -120 162 -103 111 -130 137 -134 132 -3 -2 -8
3 -12 12 -3 9 -11 16 -16 16 -6 0 -19 9 -29 21 -9 11 -20 20 -24 19 -4 -1 -17
6 -28 17 -12 10 -38 26 -57 36 -68 35 -152 84 -171 100 -10 9 -22 17 -26 17
-3 0 -20 10 -37 23 -17 12 -56 36 -86 52 -30 16 -59 33 -65 38 -5 4 -24 17
-42 27 -28 17 -73 89 -73 118 0 6 -7 12 -15 16 -14 5 -14 2 0 -24z"/>
<path d="M1425 1004 c-10 -8 -26 -14 -34 -14 -9 0 -25 -7 -36 -16 -20 -15 -20
-15 0 -11 11 2 33 9 48 15 16 7 32 12 37 12 12 0 22 18 13 23 -5 3 -17 -1 -28
-9z"/>
<path d="M1027 853 c-4 -3 -7 -33 -7 -66 0 -89 49 -194 110 -233 50 -32 60
-62 42 -127 -8 -28 -6 -38 6 -50 13 -14 13 -18 1 -34 -13 -17 -13 -17 11 -2
14 9 27 27 28 40 2 13 15 40 29 59 l24 35 -28 -32 c-19 -21 -33 -29 -42 -24
-9 6 -10 11 -2 15 6 4 12 4 12 -1 1 -4 5 10 8 32 5 33 3 44 -16 64 -13 13 -23
28 -23 32 0 5 -9 9 -19 9 -23 0 -68 52 -102 118 -18 35 -24 63 -24 110 0 34 0
62 -1 62 0 0 -4 -3 -7 -7z"/>
<path d="M1628 762 c-37 -31 -67 -62 -67 -69 -1 -7 22 10 50 38 29 29 55 47
62 43 7 -4 9 -3 4 1 -4 5 0 17 10 27 28 31 10 19 -59 -40z"/>
<path d="M2005 733 c4 -10 8 -22 8 -28 0 -12 -73 -123 -127 -192 -38 -48 -84
-116 -114 -170 -7 -13 -18 -23 -23 -23 -6 0 -7 -4 -4 -10 3 -5 2 -10 -3 -10
-5 0 -9 -7 -9 -16 0 -14 2 -14 13 2 7 11 17 24 22 29 4 6 11 17 15 25 7 14
107 163 125 185 51 64 140 201 123 191 -7 -5 -11 1 -11 13 0 12 -5 21 -11 21
-7 0 -8 -7 -4 -17z"/>
<path d="M898 713 c-14 -9 -31 -27 -37 -40 -14 -31 -14 -32 5 -29 8 1 26 21
39 44 13 23 23 42 22 42 -1 0 -14 -8 -29 -17z"/>
<path d="M2081 710 c-1 -3 -4 -18 -6 -34 -2 -16 -11 -47 -20 -70 -10 -22 -19
-52 -22 -66 -2 -13 -17 -54 -32 -90 -34 -77 -70 -185 -76 -226 -2 -16 -7 -40
-10 -54 -4 -14 -6 -37 -6 -52 1 -16 -3 -28 -9 -28 -5 0 -10 -9 -10 -20 0 -11
5 -20 11 -20 5 0 7 5 4 11 -4 6 0 16 9 22 10 7 18 30 20 53 1 22 5 45 8 50 5
9 20 60 23 79 0 6 4 17 8 25 3 8 15 44 26 80 10 36 27 83 36 105 10 22 19 54
22 70 2 17 11 48 19 71 9 23 14 54 11 70 -2 16 -5 27 -6 24z"/>
<path d="M1483 627 c-33 -34 -59 -67 -56 -74 2 -6 -4 -24 -14 -39 -18 -28 -19
-61 -2 -79 7 -7 8 -4 3 8 -12 32 44 148 95 194 25 23 43 44 40 47 -3 3 -32
-23 -66 -57z"/>
<path d="M951 612 c-7 -29 -11 -55 -8 -58 8 -8 29 64 25 88 -2 16 -7 6 -17
-30z"/>
<path d="M1753 593 c-7 -21 -59 -99 -87 -130 -11 -13 -15 -23 -9 -23 10 0 49
52 97 128 14 23 22 42 16 42 -6 0 -13 -8 -17 -17z"/>
<path d="M1050 514 c-13 -33 -13 -51 0 -59 6 -4 8 -15 5 -26 -5 -15 1 -23 31
-35 29 -12 39 -13 48 -3 8 9 8 10 -3 4 -7 -4 -16 -3 -20 1 -3 5 -17 15 -31 21
-18 9 -20 12 -7 12 22 1 22 17 1 25 -13 5 -15 15 -10 46 7 45 0 52 -14 14z"/>
<path d="M1130 510 c9 -17 7 -28 -10 -54 -15 -26 -17 -35 -7 -39 19 -7 41 68
27 93 -6 11 -13 20 -16 20 -2 0 0 -9 6 -20z"/>
<path d="M985 508 c-4 -10 -3 -30 2 -45 l10 -28 5 32 c5 38 -7 67 -17 41z"/>
<path d="M2236 464 c-14 -14 -21 -35 -17 -56 0 -5 -3 -8 -9 -8 -5 0 -10 -9
-10 -20 0 -11 -5 -20 -11 -20 -6 0 -9 -9 -6 -20 3 -11 1 -18 -4 -14 -5 3 -9
-4 -9 -15 0 -41 18 -20 40 47 12 37 29 79 37 95 15 31 12 34 -11 11z"/>
<path d="M2490 434 c19 -22 38 -39 41 -38 7 4 39 -33 39 -46 0 -5 5 -12 12
-16 7 -4 8 -3 4 5 -5 7 5 17 26 26 18 8 26 14 18 14 -8 1 -21 -3 -29 -8 -10
-7 -21 -4 -35 9 -12 10 -41 36 -66 57 l-45 38 35 -41z"/>
<path d="M2415 420 c-10 -22 -22 -40 -27 -40 -5 0 -6 -4 -3 -10 3 -5 1 -10 -4
-10 -6 0 -11 -8 -11 -17 0 -13 6 -10 20 12 24 34 52 96 47 102 -2 2 -12 -15
-22 -37z"/>
<path d="M1016 379 c2 -40 8 -88 13 -107 10 -34 10 -34 -11 -16 -21 19 -21 19
-8 -5 14 -27 8 -98 -12 -134 -7 -12 -12 -26 -13 -32 0 -5 -7 -22 -15 -38 -10
-21 -11 -30 -2 -39 8 -8 13 -7 18 8 17 53 31 86 70 168 26 53 36 82 25 72 -22
-20 -35 -21 -27 -1 3 8 2 15 -3 15 -8 0 -21 99 -21 158 0 12 -4 22 -9 22 -5 0
-7 -32 -5 -71z"/>
<path d="M586 396 c-10 -20 -23 -33 -27 -30 -5 3 -6 -1 -4 -9 3 -7 -3 -24 -15
-37 -11 -13 -20 -27 -20 -32 0 -5 -7 -16 -15 -25 -8 -8 -13 -19 -10 -24 4 -5
3 -9 -2 -9 -11 0 -33 -49 -24 -54 8 -5 143 234 139 246 -2 5 -12 -7 -22 -26z"/>
<path d="M690 410 c-6 -11 -15 -41 -20 -67 -6 -27 -13 -61 -16 -78 -4 -19 -3
-26 3 -20 12 13 36 104 34 133 0 13 3 21 7 18 4 -2 9 4 9 15 2 24 -4 24 -17
-1z"/>
<path d="M1290 388 c-26 -15 -29 -18 -10 -13 14 4 33 7 42 8 9 1 15 4 12 8 -2
4 2 10 8 12 9 4 8 5 -2 6 -8 0 -31 -9 -50 -21z"/>
<path d="M1079 371 c14 -13 37 -21 57 -21 46 0 43 17 -3 22 -21 3 -47 8 -58
12 -17 7 -17 5 4 -13z"/>
<path d="M2691 371 c26 -4 54 -13 63 -20 9 -7 16 -9 16 -4 0 16 -48 33 -88 32
-35 -2 -35 -2 9 -8z"/>
<path d="M2450 320 c-11 -21 -20 -45 -20 -52 0 -13 14 11 37 65 19 41 6 32
-17 -13z"/>
<path d="M844 309 c-4 -7 -10 -44 -14 -83 -4 -39 -11 -79 -15 -88 -4 -10 -3
-18 2 -18 10 0 28 72 39 153 6 46 2 58 -12 36z"/>
<path d="M885 280 c3 -14 9 -43 12 -65 5 -32 8 -35 14 -20 7 18 8 18 8 -3 1
-13 5 -21 9 -18 5 3 8 15 6 28 -1 13 -3 34 -4 48 l-2 25 -8 -25 c-4 -14 -9
-19 -10 -12 -1 6 -3 15 -4 20 -1 4 -7 16 -14 27 -13 19 -13 19 -7 -5z"/>
<path d="M2286 245 c-4 -14 -13 -28 -20 -31 -8 -3 -12 -14 -9 -25 3 -10 1 -19
-5 -19 -5 0 -12 -7 -16 -15 -3 -8 0 -15 7 -15 7 0 21 23 31 50 10 28 25 57 33
65 13 13 13 15 0 15 -8 0 -18 -11 -21 -25z"/>
<path d="M2443 133 c-66 -85 -94 -133 -78 -133 8 0 15 5 15 10 0 6 23 44 50
85 54 80 60 99 13 38z"/>
</g>
</svg>
