<?xml version="1.1" encoding="UTF-8"?>
<svg version="1.1" viewBox="0 0 1024 1024" width="1024" height="1024" xmlns="http://www.w3.org/2000/svg">
  <path transform="translate(332,59)"
    d="m0 0 4 2 9 10 10 8 8 4 10 3h7l23-9 13-4 16-3 9-1h12l18 2 19 5 20 8h2l-1-2v-9l5-6 5-2h5l-1 13 5 5 27 9 16 6 17 9 14 10 8 7 7 10 11-2h28l16 4 14 7 9 7 8 8 9 14 5 12 2 9-3 1-7-19-7-11-9-10-10-8-13-6-13-3-13-1 12 5 11 7 14 14 10 15 8 16 8 24 3 21v19l-3 24-7 41-5 20 1 4 5 9 2 9v22l-5 25-6 20-6 12-8 11-13 13-14 9-13 6-4 20-4 29-1 9v46l3 20 3 11h11l10 3 6 4 6 8 6 12 8 19 6 11 17 13 27 18 18 11 24 14 25 14 24 14 22 13 18 12 19 14 15 13 10 9 12 11 11 12 11 14 3 5-1 3-5-5-11-14-8-8-7-8-8-8-11-9-11-10-16-12-21-14-25-15-28-16-27-15-25-15-27-18-16-11-8-6-5-4-8-16-10-23-2-4-4 2-11 9-12 8-16 11-19 14-16 13-13 11-11 9-15 14-8 7-16 15-8 7-13 12-11 9-13 11-17 12-16 10-18 11-9 8-7 14-3 9-15 14-9 10-11 16-9 16-8 17-8 21-6 21h-3l-1-2 9-29 11-26 12-21 10-14 12-14 12-11-1-4-7-8-3-5 1-7 5-12 1-11-2-10-5-9-8-7-11-7-10-10-7-11-5-12-1-7h-2l-2-17v-16l-7 12-16 12-18 13-19 12-28 17-24 13-34 16-23 11-13 7-14 10-13 12-8 9-12 17-10 18-12 31-9 30-6 25-2 3h-2l1-9 8-31 12-36 7-16 12-21 13-17 17-17 14-10 16-9 29-14 28-13 24-13 25-15 33-22 21-16 8-13 2-4h2v-45l-3-27-3-13-15-15-12-16-11-21-9-25-6-23-3-26-1-17v-48l-3-13-4-38-1-14-5-15-7-14-11-16-5-12-3-13-5 4-4 2-1-1 1-9 6-16 6-9-2-4-9-4 1-3 9-7 7-10 5-11 7-19 10-18 10-13 9-10 9-9 14-10 11-5 5-2-11-7-10-9-7-10 1-3 5 2 10 5 7 2h10l3-1-7-8-6-13-2-11v-8z"
    fill="#FFF" />
  <path transform="translate(335,66)"
    d="m0 0 5 5 9 8 14 8 6 2h12l23-9 18-5 13-2h26l18 3 21 7 22 11-1-5-6-7-1-2v-6l5-5h3v11l4 5 38 13 25 12 11 8 10 9 6 9 1 3 11-2 13 1 12 4 12 7 13 12 11 15 11 23 6 21 3 21v10l-2 22-8 48-5 20h-3l-2-1h-11l-10 6-7 6-10 17-5 13-10 30-6 10h-1l-1-29-3-31-4-23-4-15-8-16-7-11-13-16-9-14-6-14-5-20-3-6h-2l1 6 5 14v14l-4 12-8 11-8 7-11 5v-3l9-14 5-14 1-5v-22l-4-18-2-5v-3h-3l-2 17-5 15-9 14-11 11-10 7-15 8-21 8-28 9-16 4 2-4 11-14 10-15 9-16 4-9 1-4-5 5-8 10-11 12-14 11-15 10-21 10-19 6-21 5-14 2-13 5-5 2 9-19 8-32 3-16-3-1-3 11-11 23-11 18-7 11-4 11-3 14-4 35-2 24-2 1-5-44-1-13-5-15-7-14-10-15-5-11-4-19-9 5 2-9 8-16 3-5-2-4-7-4v-2l8-7 8-13 10-26 7-13 10-14 9-10 9-9 13-10 14-7 12-3v-3l-10-3-11-8-8-8 2-1 11 4h14l6-1v-4l-4-2-7-10-5-13z"
    fill="#FFF" />
  <path transform="translate(332,59)"
    d="m0 0 4 2 9 10 10 8 8 4 10 3h7l23-9 13-4 16-3 9-1h12l18 2 19 5 20 8h2l-1-2v-9l5-6 5-2h5l-1 13 5 5 27 9 16 6 17 9 14 10 8 7 7 10 11-2h28l16 4 14 7 9 7 8 8 9 14 5 12 2 9-3 1-7-19-7-11-9-10-10-8-13-6-13-3-13-1 12 5 11 7 14 14 10 15 8 16 8 24 3 21v19l-3 24-7 41-5 20 1 4 5 9 2 9v22l-5 25-6 20-6 12-8 11-13 13-14 9-13 6-4 20-4 29-1 9v46l3 20 3 11h11l10 3 6 4 6 8 6 12 8 19 6 11 17 13 27 18 18 11 24 14 25 14 24 14 22 13 18 12 19 14 15 13 10 9 12 11 11 12 11 14 3 5-1 3-5-5-11-14-8-8-7-8-8-8-11-9-11-10-16-12-21-14-25-15-28-16-27-15-25-15-27-18-16-11-8-6-5-4-8-16-10-23-2-4-4 2-11 9-12 8-16 11-19 14-16 13-13 11-11 9-15 14-8 7-16 15-8 7-13 12-11 9-13 11-17 12-16 10-18 11-9 8-7 14-3 9-15 14-9 10-11 16-9 16-8 17-8 21-6 21h-3l-1-2 9-29 11-26 12-21 10-14 12-14 12-11-1-4-7-8-3-5 1-7 5-12 1-11-2-10-5-9-8-7-11-7-10-10-7-11-5-12-1-7h-2l-2-17v-16l-7 12-16 12-18 13-19 12-28 17-24 13-34 16-23 11-13 7-14 10-13 12-8 9-12 17-10 18-12 31-9 30-6 25-2 3h-2l1-9 8-31 12-36 7-16 12-21 13-17 17-17 14-10 16-9 29-14 28-13 24-13 25-15 33-22 21-16 8-13 2-4h2v-45l-3-27-3-13-15-15-12-16-11-21-9-25-6-23-3-26-1-17v-48l-3-13-4-38-1-14-5-15-7-14-11-16-5-12-3-13-5 4-4 2-1-1 1-9 6-16 6-9-2-4-9-4 1-3 9-7 7-10 5-11 7-19 10-18 10-13 9-10 9-9 14-10 11-5 5-2-11-7-10-9-7-10 1-3 5 2 10 5 7 2h10l3-1-7-8-6-13-2-11v-8zm3 7v8l5 13 8 11 3 1v4l-6 1h-14l-11-4-2 1 10 10 9 6 10 3v3l-12 3-14 7-16 13-13 13-10 14-8 14-12 30-7 11-8 7v2l8 5 1 3-9 16-4 11 1 3 8-5 4 19 8 16 10 15 7 17 2 7 4 42 2 15 2-1 4-44 4-25 4-13 7-12 9-14 11-21 6-16v-2l3 2-8 36-5 16-7 14 5-2 13-5 19-3 26-7 16-6 19-10 14-10 14-12 7-8 8-10 5-5-4 11-8 15-10 15-10 13-5 6v2l16-4 37-12 20-9 13-8 12-11 6-7 6-10 5-15 2-17h3l1 5 4 15 1 6v22l-3 12-7 14-6 8 1 2 12-6 9-8 7-11 3-10v-14l-6-17v-3h2l4 9 5 20 8 16 8 11 14 18 9 16 5 14 5 24 3 25 1 13 1 29 4-4 5-11 8-25 5-13 8-14 5-6 10-7 4-2h11l4 2 3-8 5-24 7-45 1-14v-10l-3-21-6-21-11-23-9-12-9-10-12-9-11-5-14-3-12 1-5 1-4-8-9-10-12-9-17-9-16-7-33-11-4-5v-11l-5 1-3 4v6l4 6 4 4-1 4-12-7-20-8-15-4-13-2h-26l-17 3-20 6-17 7h-12l-12-5-13-9-8-9zm212 156-5 18-6 12-7 9-5 6-12 9-14 8-19 8-31 10-27 8v-3l7-7 13-17 10-15 4-7-1-2-9 10-11 10-13 9-18 10-19 8-14 4-8 2v1l14 2 11 4 8 7 3 5 6 5 4 10v16l-5 25-5 15-8 16-9 9-6 5-1 8 4 5 7-1 5-1 13 8h8l14-8 5-3h8l3 3h5l-1 4h7l6-4 3-6-1-6-4-4-4-1v-3l7 3 4 6-1 9-7 8-3 1h-7l-5-2-2 1h-7l-9-1-9 5-7 1-10-4-6-4-5 1h-8l-4-4-1-2v-8l3-5 10-8 7-10 6-14 5-19 3-16v-13l-4-10-5-5h-2l-4 4-2 1h-6l-15-6-12-2-13-1h-11l-17 4-5-1 3-7 5-8 8-16 6-23-1-4-11 21-13 20-5 13-3 14-5 46-2 26-1 23v13l2 31 3 22 5 20 10 27 10 18 12 16 11 12 16 14h2v2h2l1 3 18 11 13 5 15 3 17 2h28l20-3 21-6 20-8 19-10 12-8 13-10 12-11 11-11 7-10v-2h4l-7 11-14 15-11 10-18 13-15 9-21 10-27 9-15 3-9 1h-36l-19-3-16-5-16-8-10-7-4-5-7-5 3 25 1 9v40l-2 25 2 17 4 15 8 16 11 12 15 10 6 5 5 10 2 8v11l-3 10-4 10 4 7 7 6 8-16 4-5 15-10 22-13 16-12 10-8 13-11 14-12 15-14 8-7 14-13 8-7 14-12 15-13 14-11 20-15 19-13 8-6-2-4-6-10-6-18-3-14-2-26 1-32 5-39 3-15 6-18 11-21 8-12 13-18 7-14 1-3 2-21v-7l-5-6-7-1-3 4-2 13-4 6-7 4-7 1 1-2 11-4 4-6 3-16 3-2h8l6 4 4-8 3-9-1-5-4-2h-8l-10 6-10 12-8 14-8 25-6 16-7 11-1 3-3-1v-34l-3-31-4-23-4-14-6-14-7-11-8-10-10-13-8-14-3-4-4 12-6 10-9 9-14 7-10 2 2-4 7-7 8-13 4-13 1-6v-17l-3-15z"
    fill="#2E2E2E" />
  <path transform="translate(393,478)"
    d="m0 0h8l7 4 9-1 6-2h12l17 5 22 7 9 2h13l6-1v4l-3 2-7 2-12 14-10 9-10 7-14 7-14 4-6 1h-25l-14-4-10-6-9-10-7-13-2-4 2-1 5 5 7 13 8 8 13 6 10 2h20l18-4 17-8 14-11 10-10-10 3-24 8-20 4h-24l-15-3-16-7-14-7-16-2v-4l9-2 19-8 17-8z"
    fill="#2E2E2E" />
  <path transform="translate(492,313)"
    d="m0 0h33l16 4 16 7 12 7 2 2-1 4-11-3-15-4-21-2h-12l-22 3-16 6-11 6-4 10v5l1 1h6l17-11 10-3h22l16 5 10 6-8-7-13-6-7-2h-14l-10 3-14 8-5 4-3-1 2-4 14-9 13-5h19l13 5 10 6 7 7 4 6v3l-10-1-19 7-17 3h-9l-11-2-8-4-3-3v-3l-6 3h-6l-5-4v-9l5-11-5-1-4-4v-6l6-7 12-5 15-3z"
    fill="#2E2E2E" />
  <path transform="translate(694,349)"
    d="m0 0h2l4 8 2 10v15l-3 19-6 23-5 12-7 12-11 12-13 10-14 7-2-1 7-16 10-18 13-18 7-10 8-18 2-10v-8l-2-10 3-4z"
    fill="#FFF" />
  <path transform="translate(361,503)"
    d="m0 0 6 2 15 8 16 5 7 1h24l20-4 30-10 5-1-6 7-7 7-14 10-15 7-18 4h-20l-13-3-11-6-8-8-9-16-2-1z" fill="#FFF" />
  <path transform="translate(354,337)"
    d="m0 0 12 1 12 5 9 6 5 5-1 3-4-2-8-7-11-5-4-1h-15l-12 6-8 6 18-9 4-1h14l10 3 9 6 6 7 2 3v4l-4-2-6-9-6-4v9l-4 6-5 4-2 1-14 1-14-3-8-5-3-3-5 2-1-4 7-9 12-9 10-4z"
    fill="#2E2E2E" />
  <path transform="translate(361,496)" d="m0 0 20 2 27 2h74l-2 2-25 9-21 5-21 1-18-2-14-5-17-9-6-2v-2z" fill="#FFF" />
  <path transform="translate(395,481)" d="m0 0 9 2 6 3 8-2 6-2h10l18 5 21 7 8 2v1h-86l-27-3 3-3 19-9z" fill="#FFF" />
  <path transform="translate(493,316)"
    d="m0 0h27l16 3 16 6 8 4-3 1-12-3-15-2h-26l-16 3-16 6-6 3h-8l-4-2 1-7 5-4 11-4 14-3z" fill="#FFF" />
  <path transform="translate(350,315)" d="m0 0h11l18 3 8 4 6 5v5l-5 4-8-2-10-4-20-3h-21l-14 3 4-5 8-4 9-3z"
    fill="#FFF" />
  <path transform="translate(354,347)" d="m0 0h8l9 2 2 3v8l-4 6-6 3h-8l-5-3-3-6v-7l3-5z" fill="#FFF" />
  <path transform="translate(497,348)" d="m0 0h13l7 1 2 2v9l-5 6-4 2h-11l-5-4-1-9 3-6z" fill="#FFF" />
  <path transform="translate(374,788)" d="m0 0 7 1 4 6-1 9-5 6-2 1h-7l-3-3-1-3v-7l3-6z" fill="#FFF" />
  <path transform="translate(374,938)" d="m0 0h7l4 4 1 6-3 8-5 4h-8l-3-4-1-6 3-8z" fill="#FFF" />
  <path transform="translate(640,620)" d="m0 0 11 1 9 4 3 2v3h-2l-1 3-10 8h-2l-7-11-3-9z" fill="#FFF" />
  <path transform="translate(376,934)"
    d="m0 0 7 1 5 6 1 2v7l-4 8-6 5-7 1-6-3-3-5v-7l3-8 7-6zm-2 4-5 4-3 8 1 6 3 4h8l5-4 3-8-1-6-4-4z" fill="#2E2E2E" />
  <path transform="translate(373,785)"
    d="m0 0h7l5 3 3 6v8l-3 6-7 6-7 1-6-4-2-4v-10l4-8zm1 3-6 5-2 5v7l3 5 1 1h7l6-5 2-5v-6l-4-6z" fill="#2E2E2E" />
  <path transform="translate(489,349)" d="m0 0 4 1-2 4v8l3 7h-7l-10-4-3-3 1-5 9-6z" fill="#FFF" />
  <path transform="translate(343,350)" d="m0 0h2v11l3 6v2l-10-2-8-5 1-4 10-7z" fill="#FFF" />
  <path transform="translate(522,351)" d="m0 0 7 2 8 5-3 3-13 5h-2l3-10z" fill="#FFF" />
</svg>